<svg width="29" height="29" viewBox="0 0 29 29" fill="none" xmlns="http://www.w3.org/2000/svg">
<path d="M26.4329 5.68383C25.9861 5.23657 25.4953 5.00983 24.9748 5.00983C24.8941 5.00983 24.8138 5.01826 24.733 5.02846C24.7561 4.07536 24.4983 3.27667 23.9103 2.68874C23.5359 2.31469 23.1729 2.11679 22.8108 2.06177L22.7771 2.02805C22.0108 1.26086 21.2742 0.887695 20.5266 0.887695C18.8076 0.887695 17.4809 2.78325 15.6448 5.40695C14.3877 7.20223 12.9639 9.23712 11.0994 11.1016C9.23485 12.9661 7.20085 14.39 5.40602 15.6471C2.96558 17.3549 1.03851 18.7043 0.895636 20.3354C0.830854 21.0795 1.13924 21.8125 1.82922 22.569C1.72627 23.0944 1.90687 23.6131 2.44731 24.1536C3.08183 24.7876 3.96172 25.0383 5.01688 24.966C5.01377 25.4909 5.23119 25.9861 5.68201 26.4365C6.39462 27.1491 7.39431 27.5103 8.65358 27.5103C11.9899 27.5103 16.7683 24.8879 20.827 20.8288C26.6441 15.0112 29.1063 8.35856 26.4329 5.68383ZM2.22989 21.7158C1.87403 21.2525 1.71474 20.8217 1.75112 20.4104C1.85895 19.1782 3.64136 17.93 5.8981 16.3503C7.72178 15.0738 9.78905 13.6264 11.7064 11.7091C13.6241 9.79132 15.0711 7.72404 16.3476 5.89948C17.9712 3.57928 19.254 1.74673 20.5261 1.74673C20.9179 1.74673 21.3288 1.93043 21.769 2.28274C21.0843 2.65857 20.3699 3.46747 19.5708 4.52662C19.214 4.55546 18.8041 4.6655 18.5551 4.9233C18.0883 5.40385 18.1442 5.9261 18.2219 6.39644C17.7582 7.0569 17.2886 7.71318 16.8131 8.36521C16.1981 8.50143 15.4633 8.69978 14.8958 9.51888C14.4312 10.1902 14.323 10.9246 14.236 11.5152L14.2191 11.6221C13.9293 11.9504 13.6328 12.2727 13.3299 12.589C12.2046 12.5761 11.477 13.7639 11.0887 14.4033C10.9827 14.5777 10.8904 14.7698 10.8016 14.9588C10.2919 15.3893 9.77229 15.808 9.24328 16.2146C8.78581 16.1919 8.44814 16.3916 8.11846 16.6183C7.6388 16.9489 7.37967 17.3452 7.19021 17.7321C4.941 19.3335 3.04278 20.5745 2.22989 21.7158ZM18.3004 7.03051C18.3031 7.16718 18.2889 7.30251 18.2481 7.43918C18.1167 7.34156 18.048 7.24793 18.0715 7.17028C18.091 7.10506 18.1757 7.05935 18.3004 7.03051ZM10.4373 15.6528C10.3699 15.7603 10.2899 15.8593 10.199 15.9479C10.1604 15.896 10.144 15.8472 10.1573 15.8041C10.18 15.73 10.2838 15.6817 10.4373 15.6528ZM5.53514 19.5837C5.2747 19.651 5.02147 19.7436 4.77905 19.8601C4.76174 19.8255 4.75287 19.7927 4.76219 19.7616C4.80345 19.625 5.10385 19.566 5.53514 19.5837ZM4.77461 22.8029C4.71471 23.137 4.47333 23.1871 4.33489 23.1871C4.14542 23.1871 3.95329 23.0979 3.83349 22.9542C3.7805 22.8906 3.74267 22.8159 3.72283 22.7355C3.703 22.6552 3.70169 22.5714 3.71901 22.4905C3.99456 20.9588 4.32823 20.3518 5.6545 19.9964C6.8166 19.6849 7.11034 18.9931 7.39432 18.3244C7.60641 17.8253 7.80653 17.3536 8.36162 16.9715C8.62652 16.7896 8.87056 16.6388 9.17495 16.6388C9.21045 16.6388 9.24698 16.6408 9.28455 16.645C10.4267 16.7683 10.8189 15.9266 11.1646 15.1936C11.2609 14.9895 11.3518 14.7969 11.4561 14.6261C11.9517 13.8092 12.5507 12.9266 13.4213 13.0202C13.4796 13.0259 13.5348 13.0287 13.5868 13.0287C14.4472 13.0282 14.5559 12.2908 14.6611 11.5773C14.7454 11.0027 14.8417 10.3517 15.249 9.76337C15.7535 9.03478 16.3938 8.89546 17.0132 8.75968C17.5958 8.63277 18.1988 8.50099 18.5418 7.8545C18.8156 7.3389 18.7331 6.8477 18.6598 6.41463C18.5809 5.94651 18.5192 5.5769 18.864 5.22192C19.0494 5.03024 19.455 4.94327 19.7691 4.94327C19.8685 4.9446 19.9981 4.95614 20.141 4.96856C20.3446 4.98675 20.5758 5.00672 20.7981 5.00672C21.2312 5.00672 21.5081 4.92641 21.6691 4.75469C21.7738 4.64198 21.824 4.49423 21.8125 4.32606C21.7778 3.81179 21.9096 3.42487 22.0547 3.26912C22.1262 3.19236 22.1807 3.19236 22.1985 3.19236C22.285 3.19236 22.3982 3.26691 22.5175 3.40224C22.8521 3.7825 23.4036 5.02802 22.7199 5.71179C21.9465 6.48607 21.1278 6.52068 20.5306 6.54553C20.1432 6.56195 19.837 6.57437 19.6715 6.80067C19.53 6.99457 19.5766 7.24882 19.624 7.42231C19.8952 8.42023 19.6289 8.97577 18.6048 9.54639C18.4158 9.65155 18.1048 9.71101 17.7751 9.77402C16.9329 9.93508 15.7783 10.1556 15.9208 11.4504C15.9825 12.0139 15.9794 12.4518 15.911 12.9635C15.7868 13.8828 14.772 14.2502 13.9467 14.1695C12.7176 14.0519 12.3946 15.0636 12.1044 15.9497C11.8679 16.6716 11.6447 17.3531 11.0297 17.567C10.8287 17.6371 10.5483 17.6589 10.2514 17.6819C9.65505 17.7281 8.97927 17.7809 8.72192 18.2912C8.60034 18.5325 8.48985 18.7806 8.37937 19.0282C8.18724 19.4586 7.98845 19.9032 7.73376 20.2959C7.42094 20.7782 6.95237 20.9357 6.4563 21.1021C5.76987 21.3324 4.99248 21.5942 4.77461 22.8029ZM21.536 7.97962C21.477 8.17486 20.8922 8.21124 20.1494 8.09188C20.1491 7.82708 20.1118 7.56362 20.0385 7.30917C20.0256 7.26339 20.0164 7.21665 20.011 7.1694C20.9268 7.39436 21.6048 7.752 21.536 7.97962ZM19.0179 11.2179C18.9474 11.4535 18.1136 11.4632 17.1574 11.2401C16.8924 11.179 16.6317 11.1006 16.3769 11.0053C16.4688 10.6588 16.7581 10.4742 17.1934 10.3464C17.2683 10.3615 17.3371 10.3695 17.4143 10.3872C18.3705 10.61 19.0889 10.9823 19.0179 11.2179ZM16.1404 14.0958C16.1023 14.2236 15.8391 14.2835 15.4562 14.2773C15.6557 14.1645 15.8332 14.0168 15.9802 13.8411C16.0996 13.933 16.163 14.0217 16.1404 14.0958ZM13.6223 16.6139C13.5651 16.8052 13.0016 16.8451 12.281 16.7342C12.3679 16.5194 12.4425 16.298 12.5126 16.0832L12.5627 15.935C13.2305 16.1524 13.6787 16.4271 13.6223 16.6139ZM10.7439 18.773C10.6747 19.0033 9.88002 19.0153 8.95398 18.8085C9.00412 18.7007 9.0516 18.5902 9.10484 18.4842C9.21045 18.2752 9.50596 18.1953 9.8494 18.1514C10.4236 18.3573 10.7963 18.6009 10.7439 18.773ZM8.22673 20.571C8.20454 20.6446 8.10071 20.6934 7.94941 20.7227C7.99955 20.6628 8.04835 20.5998 8.09361 20.5293C8.11979 20.4889 8.14242 20.4463 8.16771 20.4059C8.21785 20.4649 8.24181 20.5213 8.22673 20.571ZM19.2043 19.2066C12.6936 25.7177 8.24891 26.1818 6.54815 26.0513C6.4562 25.9841 6.36957 25.91 6.28902 25.8295C5.98329 25.5242 5.84974 25.2349 5.86837 24.9203C5.93404 23.8248 7.76349 22.3889 10.0797 20.5701C11.8231 19.2012 13.7994 17.65 15.7238 15.726C17.6477 13.8016 19.199 11.8253 20.5678 10.0811C22.415 7.72715 23.8744 5.86842 24.9748 5.86842C25.2632 5.86842 25.5415 6.00641 25.8259 6.29039C26.2461 6.71104 26.4986 7.27544 26.5971 7.94812C26.3867 10.3406 24.4992 13.9112 19.2043 19.2066Z" fill="white"/>
</svg>
