<svg width="29" height="29" viewBox="0 0 29 29" fill="none" xmlns="http://www.w3.org/2000/svg">
<path d="M17.8596 23.0734C17.8596 25.0341 16.7143 26.6231 14.7536 26.6231H7.43229C5.47162 26.6231 4.32628 25.0341 4.32628 23.0734M18.6361 18.6362C19.6162 18.6362 20.411 19.6296 20.411 20.8548C20.411 22.08 19.6162 23.0734 18.6361 23.0734H3.54977C2.56971 23.0734 1.7749 22.08 1.7749 20.8548C1.7749 19.6296 2.56971 18.6362 3.54977 18.6362" stroke="white" stroke-width="1.77487" stroke-miterlimit="10" stroke-linecap="round"/>
<path d="M3.54977 15.3081V15.2959C3.54977 12.2454 6.04568 10.6491 9.09623 10.6491H13.0897C16.1402 10.6491 18.6361 12.2576 18.6361 15.3081V15.2959M13.367 6.21191L13.7797 9.75999M19.0799 18.636H9.9454C9.82787 18.636 9.71517 18.6827 9.63202 18.7658L8.14391 20.2539C8.1233 20.2745 8.09883 20.2909 8.0719 20.302C8.04497 20.3132 8.0161 20.319 7.98694 20.319C7.95778 20.319 7.92891 20.3132 7.90198 20.302C7.87505 20.2909 7.85058 20.2745 7.82998 20.2539L6.34186 18.7658C6.25871 18.6827 6.14601 18.636 6.02848 18.636H3.10605C2.75301 18.636 2.41443 18.4957 2.16479 18.2461C1.91515 17.9965 1.7749 17.6579 1.7749 17.3048C1.7749 16.9518 1.91515 16.6132 2.16479 16.3636C2.41443 16.1139 2.75301 15.9737 3.10605 15.9737H19.0799C19.4329 15.9737 19.7715 16.1139 20.0211 16.3636C20.2708 16.6132 20.411 16.9518 20.411 17.3048C20.411 17.6579 20.2708 17.9965 20.0211 18.2461C19.7715 18.4957 19.4329 18.636 19.0799 18.636Z" stroke="white" stroke-width="1.77487" stroke-miterlimit="10" stroke-linecap="round"/>
<path d="M14.1992 26.6229H21.926C22.3738 26.6229 22.805 26.4536 23.1332 26.1491C23.4614 25.8445 23.6624 25.4271 23.6959 24.9806L25.6804 6.21191" stroke="white" stroke-width="1.77487" stroke-miterlimit="10" stroke-linecap="round"/>
<path d="M20.4106 6.21207L21.2981 2.66234L23.9049 1.7749" stroke="white" stroke-width="1.77487" stroke-linecap="round" stroke-linejoin="round"/>
<path d="M12.4238 6.21191H26.6228" stroke="white" stroke-width="1.77487" stroke-miterlimit="10" stroke-linecap="round"/>
</svg>
