<svg width="36" height="58" viewBox="0 0 36 58" fill="none" xmlns="http://www.w3.org/2000/svg">
<g clip-path="url(#clip0_144_987)">
<path d="M17.1435 25.3345L20.2317 23.6242C21.8589 27.9068 20.6564 32.8902 17.3333 36.6235L18.5233 38.7724L9.13595 43.9713L7.94587 41.8224C3.01818 42.6585 -1.84314 41.0353 -4.61083 37.3823L17.1435 25.3345ZM17.1435 25.3345C17.8713 24.9279 18.4329 24.2781 18.7296 23.499C19.0264 22.7199 19.0394 21.8611 18.7665 21.0734C18.4936 20.2856 17.9521 19.619 17.2369 19.1905C16.5217 18.762 15.6786 18.5989 14.8552 18.7297M17.1435 25.3345L17.1264 25.3439M14.8552 18.7297C14.4567 18.7942 14.0595 18.9269 13.6869 19.1333M14.8552 18.7297C15.2649 16.407 13.7284 13.9366 11.4057 13.5269C10.2895 13.3305 9.14102 13.5851 8.21242 14.2348C7.28381 14.8845 6.651 15.8762 6.45293 16.992C4.70646 14.9119 1.88669 15.1507 -0.192597 16.8987C-0.687583 17.3138 -1.09592 17.8223 -1.39427 18.3953C-1.69263 18.9682 -1.87515 19.5943 -1.9314 20.2379C-1.98765 20.8814 -1.91653 21.5297 -1.7221 22.1457C-1.52768 22.7617 -1.21376 23.3334 -0.798295 23.828C-2.74902 22.5001 -5.64383 22.259 -7.28319 24.6622C-8.61268 26.6138 -8.04647 29.5302 -6.09488 30.8597M-6.09488 30.8597C-6.90252 31.8852 -6.90157 33.246 -6.23 34.4587C-5.33572 36.0734 -3.30194 36.6574 -1.68718 35.7632M-6.09488 30.8597C-5.75245 30.4266 -4.73712 29.2962 -2.62561 29.6322M4.79852 23.7129C5.3581 22.9559 6.19544 22.4522 7.12637 22.3126C8.0573 22.1729 9.00557 22.4088 9.76263 22.9682" stroke="white" stroke-width="3.54974" stroke-linecap="round" stroke-linejoin="round"/>
</g>
<defs>
<clipPath id="clip0_144_987">
<rect width="42.5968" height="42.5968" fill="white" transform="translate(-22 20.6372) rotate(-28.9783)"/>
</clipPath>
</defs>
</svg>
