<svg width="27" height="27" viewBox="0 0 27 27" fill="none" xmlns="http://www.w3.org/2000/svg">
<path d="M11.7736 3.44452C11.9207 3.14607 12.1485 2.89477 12.4311 2.71905C12.7137 2.54333 13.0398 2.4502 13.3726 2.4502C13.7053 2.4502 14.0314 2.54333 14.314 2.71905C14.5966 2.89477 14.8244 3.14607 14.9716 3.44452L17.4497 8.46327L22.99 9.26778C23.3193 9.31561 23.6287 9.45466 23.8831 9.66921C24.1375 9.88375 24.3268 10.1652 24.4295 10.4818C24.5323 10.7983 24.5443 11.1373 24.4644 11.4604C24.3845 11.7834 24.2157 12.0777 23.9772 12.3098L19.968 16.2165L20.9152 21.7344C20.9715 22.0622 20.935 22.3992 20.8099 22.7073C20.6847 23.0154 20.4759 23.2824 20.207 23.4781C19.9381 23.6737 19.6198 23.7903 19.2881 23.8145C18.9564 23.8388 18.6245 23.7698 18.33 23.6153L13.3714 21.0079L8.4151 23.6153C8.12057 23.7698 7.78871 23.8388 7.45703 23.8145C7.12534 23.7903 6.80705 23.6737 6.53812 23.4781C6.2692 23.2824 6.06037 23.0154 5.93522 22.7073C5.81008 22.3992 5.77362 22.0622 5.82996 21.7344L6.77487 16.2165L2.76567 12.3098C2.52713 12.0775 2.35839 11.7831 2.27857 11.4599C2.19874 11.1367 2.21101 10.7975 2.314 10.4809C2.41698 10.1643 2.60656 9.88288 2.86127 9.66848C3.11597 9.45407 3.42562 9.31526 3.75516 9.26778L9.29538 8.46549L11.7736 3.44452Z" fill="#02A777"/>
</svg>
