<svg width="102" height="31" viewBox="0 0 102 31" fill="none" xmlns="http://www.w3.org/2000/svg">
<path d="M29.1373 15.4096L33.7128 0.144231H27.7569L15.8461 13.3922C15.4806 13.7981 14.8145 13.443 14.95 12.9151L18.2823 0H7.87807L0 30.5307H10.4042L13.73 17.6405C13.8618 17.1292 14.5854 17.1154 14.7375 17.6211L18.606 30.5297H33.7128L20.8984 16.2768C20.5969 15.9412 20.8353 15.4077 21.288 15.4077H29.1383L29.1373 15.4096Z" fill="white"/>
<path d="M41.2695 24.3646V8.19971H44.3328V15.145H44.4125L51.7414 8.19971H55.506L48.3173 14.9453L55.686 24.3646H52.0216L46.1344 16.8008L44.3318 18.2376V24.3646H41.2686H41.2695Z" fill="white"/>
<path d="M62.0188 24.6043C60.7377 24.6043 59.6189 24.3482 58.6652 23.836C57.7106 23.3237 56.9758 22.5989 56.4628 21.6605C55.9489 20.722 55.6919 19.6144 55.6919 18.3376C55.6919 17.0608 55.9452 15.9597 56.4526 15.0351C56.9601 14.1106 57.6809 13.3986 58.6151 12.9003C59.5493 12.401 60.644 12.1523 61.8992 12.1523C63.1543 12.1523 64.1822 12.389 65.0626 12.8606C65.944 13.333 66.6249 14.0116 67.1054 14.8964C67.586 15.7812 67.8263 16.8287 67.8263 18.0399V19.0773H58.5548C58.6754 20.0887 59.0316 20.8635 59.6263 21.4025C60.22 21.9415 61.0114 22.2106 61.9994 22.2106C62.7332 22.2106 63.3306 22.0747 63.7917 21.8019C64.2518 21.5292 64.5756 21.1205 64.763 20.575H67.7669C67.4867 21.8389 66.842 22.8273 65.8345 23.5382C64.8261 24.2502 63.5551 24.6061 62.0198 24.6061L62.0188 24.6043ZM58.6355 17.0608H64.9634C64.8567 16.2361 64.5394 15.6074 64.0125 15.1747C63.4846 14.742 62.7814 14.5257 61.9001 14.5257C61.0188 14.5257 60.3184 14.7457 59.7571 15.184C59.1968 15.6231 58.8229 16.249 58.6355 17.0599V17.0608Z" fill="white"/>
<path d="M67.8701 29.1537V26.8387H70.0326V12.3906H72.9762V26.6991C72.9762 27.5238 72.7563 28.1395 72.3157 28.5454C71.875 28.9513 71.2479 29.1537 70.4334 29.1537H67.8701ZM71.5151 11.0731C71.0475 11.0731 70.6504 10.9104 70.3239 10.5841C69.9964 10.2586 69.8331 9.8629 69.8331 9.39692C69.8331 8.93095 69.9964 8.53616 70.3239 8.20979C70.6504 7.88342 71.0475 7.7207 71.5151 7.7207C71.9826 7.7207 72.3797 7.88342 72.7062 8.20979C73.0328 8.53616 73.197 8.93187 73.197 9.39692C73.197 9.86197 73.0337 10.2586 72.7062 10.5841C72.3788 10.9104 71.9817 11.0731 71.5151 11.0731Z" fill="white"/>
<path d="M77.2449 11.0731C76.7774 11.0731 76.3803 10.9104 76.0537 10.5841C75.7263 10.2586 75.563 9.8629 75.563 9.39692C75.563 8.93095 75.7263 8.53616 76.0537 8.20979C76.3803 7.88342 76.7774 7.7207 77.2449 7.7207C77.7125 7.7207 78.1095 7.88342 78.4361 8.20979C78.7626 8.53616 78.9268 8.93187 78.9268 9.39692C78.9268 9.86197 78.7636 10.2586 78.4361 10.5841C78.1086 10.9104 77.7116 11.0731 77.2449 11.0731ZM75.7634 24.3646V12.3906H78.7469V24.3646H75.7634Z" fill="white"/>
<path d="M89.4014 24.5838C88.0395 24.5838 86.968 24.2482 86.1878 23.576C85.4067 22.9048 85.0161 22.0228 85.0161 20.9318C85.0161 19.8408 85.403 18.8996 86.1776 18.2673C86.9513 17.6358 88.0664 17.3196 89.522 17.3196H93.6271V16.7806C93.6271 14.9315 92.6057 14.0069 90.5638 14.0069C88.8949 14.0069 87.8874 14.6328 87.5404 15.8828H85.2777C85.4781 14.6985 86.0487 13.7813 86.9903 13.1286C87.931 12.4768 89.1361 12.1504 90.6046 12.1504C92.2736 12.1504 93.551 12.5433 94.4397 13.3273C95.3276 14.1123 95.771 15.243 95.771 16.7205V22.0487H96.8527V24.3638H94.4499V22.5276H93.6085C93.1948 23.1665 92.627 23.6685 91.9062 24.0346C91.1854 24.4008 90.3504 24.5838 89.4032 24.5838H89.4014ZM89.702 22.7883C90.4228 22.7883 91.0833 22.6422 91.6845 22.3492C92.2856 22.057 92.7587 21.6576 93.1066 21.1519C93.4536 20.6461 93.6271 20.0942 93.6271 19.4951V18.956H89.6621C87.9801 18.956 87.1387 19.582 87.1387 20.832C87.1387 21.4311 87.3651 21.9063 87.8196 22.2586C88.2733 22.6117 88.9013 22.7874 89.702 22.7874V22.7883Z" fill="white"/>
<path d="M100.638 10.754C100.264 10.754 99.9443 10.6209 99.6771 10.3546C99.41 10.0884 99.2764 9.76939 99.2764 9.3968C99.2764 9.0242 99.41 8.70523 99.6771 8.43896C99.9443 8.17269 100.264 8.03955 100.638 8.03955C101.012 8.03955 101.332 8.17269 101.599 8.43896C101.867 8.70523 102 9.0242 102 9.3968C102 9.76939 101.867 10.0884 101.599 10.3546C101.332 10.6209 101.012 10.754 100.638 10.754ZM99.5176 24.3644V12.3905H101.76V24.3644H99.5176Z" fill="white"/>
</svg>
