<svg width="49" height="53" viewBox="0 0 49 53" fill="none" xmlns="http://www.w3.org/2000/svg">
<g clip-path="url(#clip0_144_995)">
<path d="M35.043 6.08178L15.1986 14.2112L15.9563 16.9296L36.4726 11.2109L36.9492 12.9205L16.4329 18.6393L18.8157 27.1877L39.332 21.469C40.1946 24.5635 40.0064 27.6562 38.8187 30.7326C37.631 33.809 35.6885 36.3588 33.0055 38.4333L33.8395 41.4253L20.1619 45.2378L19.328 42.2458C15.9758 41.8536 12.9725 40.6639 10.3694 38.6626C7.76637 36.6612 6.00075 34.0948 5.13818 31.0002L10.2673 29.5706L6.45476 15.893L34.5664 4.37209L35.043 6.08178ZM8.58382 16.921L9.11757 18.8358L10.8273 18.3593L10.2459 16.2735L8.58382 16.921ZM9.59413 20.5455L11.9769 29.094L13.6866 28.6174L11.3038 20.069L9.59413 20.5455ZM17.106 27.6643L14.7232 19.1158L13.0135 19.5924L15.3963 28.1409L17.106 27.6643ZM14.2466 17.4062L13.5556 14.9271L11.8888 15.5575L12.537 17.8827L14.2466 17.4062Z" fill="white"/>
</g>
<defs>
<clipPath id="clip0_144_995">
<rect width="42.5968" height="42.5968" fill="white" transform="translate(-4 11.4375) rotate(-15.5754)"/>
</clipPath>
</defs>
</svg>
