<svg width="43" height="43" viewBox="0 0 43 43" fill="none" xmlns="http://www.w3.org/2000/svg">
<path d="M15.1043 22.1506C14.7533 22.1506 14.4101 22.2547 14.1182 22.4498C13.8264 22.6448 13.5989 22.922 13.4645 23.2463C13.3302 23.5706 13.295 23.9275 13.3635 24.2718C13.432 24.6161 13.6011 24.9323 13.8493 25.1805C14.0975 25.4287 14.4137 25.5978 14.758 25.6663C15.1023 25.7348 15.4592 25.6996 15.7835 25.5653C16.1078 25.4309 16.385 25.2034 16.58 24.9116C16.7751 24.6197 16.8792 24.2765 16.8792 23.9255C16.8792 23.4548 16.6922 23.0033 16.3593 22.6705C16.0265 22.3376 15.575 22.1506 15.1043 22.1506ZM15.1043 14.1992C14.7533 14.1992 14.4101 14.3033 14.1182 14.4983C13.8264 14.6934 13.5989 14.9706 13.4645 15.2949C13.3302 15.6192 13.295 15.9761 13.3635 16.3204C13.432 16.6646 13.6011 16.9809 13.8493 17.2291C14.0975 17.4773 14.4137 17.6464 14.758 17.7149C15.1023 17.7833 15.4592 17.7482 15.7835 17.6139C16.1078 17.4795 16.385 17.252 16.58 16.9602C16.7751 16.6683 16.8792 16.3251 16.8792 15.9741C16.8792 15.5034 16.6922 15.0519 16.3593 14.7191C16.0265 14.3862 15.575 14.1992 15.1043 14.1992ZM21.2986 17.749C20.8279 17.749 20.3764 17.936 20.0436 18.2688C19.7107 18.6017 19.5237 19.0531 19.5237 19.5238V21.2987C19.5237 21.7694 19.7107 22.2209 20.0436 22.5537C20.3764 22.8866 20.8279 23.0736 21.2986 23.0736C21.7693 23.0736 22.2208 22.8866 22.5536 22.5537C22.8865 22.2209 23.0735 21.7694 23.0735 21.2987V19.5238C23.0735 19.0531 22.8865 18.6017 22.5536 18.2688C22.2208 17.936 21.7693 17.749 21.2986 17.749ZM36.385 15.2109C35.7727 14.8586 35.0964 14.6317 34.3956 14.5433C33.6947 14.4549 32.9833 14.5069 32.3028 14.6962C31.5945 14.8859 30.9349 15.2248 30.3682 15.6901L9.77969 3.78076C9.50988 3.62498 9.20381 3.54297 8.89226 3.54297C8.58071 3.54297 8.27464 3.62498 8.00483 3.78076C7.73067 3.93486 7.50238 4.15905 7.34333 4.43036C7.18428 4.70168 7.10018 5.01039 7.09964 5.32489V28.6999C6.05221 29.0532 5.14404 29.73 4.50607 30.6327C3.8681 31.5355 3.53328 32.6175 3.54991 33.7228C3.54941 35.1107 4.09086 36.4439 5.05892 37.4385C6.02697 38.4331 7.3451 39.0104 8.73252 39.0474H9.76194C15.5777 39.0337 21.2863 37.4814 26.3082 34.5481C31.33 31.6148 35.4863 27.4049 38.3551 22.3459C39.0176 21.1354 39.1844 19.715 38.8202 18.384C38.456 17.053 37.5893 15.9154 36.4027 15.2109H36.385ZM10.6494 8.39541L28.2028 18.5299C26.2554 21.4357 23.652 23.8429 20.6028 25.5572C17.5536 27.2714 14.144 28.2446 10.6494 28.3982V8.39541ZM35.2668 20.6065C32.6319 25.249 28.7839 29.0873 24.1348 31.7104C19.4857 34.3336 14.2106 35.6427 8.87451 35.4976C8.40379 35.4976 7.95234 35.3107 7.61949 34.9778C7.28664 34.6449 7.09964 34.1935 7.09964 33.7228C7.09825 33.485 7.14467 33.2493 7.23614 33.0298C7.32761 32.8102 7.46226 32.6113 7.6321 32.4449C7.96554 32.1235 8.4114 31.9451 8.87451 31.9479H9.77969C14.3371 31.9461 18.8122 30.7341 22.7476 28.4358C26.683 26.1375 29.9376 22.8355 32.1785 18.8671C32.2863 18.6724 32.4335 18.5024 32.6108 18.3679C32.788 18.2334 32.9914 18.1375 33.2079 18.0862C33.6555 17.9634 34.1333 18.0207 34.5391 18.2459C34.9463 18.4648 35.2521 18.8339 35.3913 19.2748C35.5305 19.7157 35.4922 20.1934 35.2845 20.6065H35.2668Z" fill="white"/>
</svg>
