<svg width="20" height="20" viewBox="0 0 20 20" fill="none" xmlns="http://www.w3.org/2000/svg">
<rect width="19.0219" height="19.0219" rx="9.51094" fill="#02A777"/>
<path d="M9.6875 15.0219C8.90083 15.0219 8.16271 14.8733 7.47313 14.5763C6.78354 14.2792 6.18104 13.8727 5.66562 13.3569C5.15021 12.841 4.74375 12.2383 4.44625 11.5488C4.14875 10.8592 4 10.121 4 9.33437C4 8.11771 4.35 7.02083 5.05 6.04375C5.75 5.06667 6.67417 4.38542 7.8225 4C7.77917 4.975 7.92854 5.91271 8.27063 6.81313C8.61229 7.71354 9.12896 8.50938 9.82062 9.20063C10.5123 9.89229 11.3081 10.4092 12.2081 10.7513C13.1081 11.0933 14.046 11.2427 15.0219 11.1994C14.6385 12.3469 13.9577 13.2708 12.9794 13.9713C12.001 14.6717 10.9038 15.0219 9.6875 15.0219Z" fill="black"/>
</svg>
