<svg width="21" height="20" viewBox="0 0 21 20" fill="none" xmlns="http://www.w3.org/2000/svg">
<rect width="20.4993" height="19.634" rx="9.81701" fill="#02A777"/>
<path d="M10.2493 13.625C10.4151 13.625 10.574 13.6908 10.6912 13.8081C10.8085 13.9253 10.8743 14.0842 10.8743 14.25V14.875C10.8743 15.0408 10.8085 15.1997 10.6912 15.3169C10.574 15.4342 10.4151 15.5 10.2493 15.5C10.0835 15.5 9.92458 15.4342 9.80737 15.3169C9.69016 15.1997 9.62431 15.0408 9.62431 14.875V14.25C9.62431 14.0842 9.69016 13.9253 9.80737 13.8081C9.92458 13.6908 10.0835 13.625 10.2493 13.625ZM14.2268 12.3438L14.6687 12.7856C14.7825 12.9035 14.8455 13.0614 14.8441 13.2253C14.8427 13.3891 14.7769 13.5459 14.6611 13.6618C14.5452 13.7776 14.3884 13.8434 14.2246 13.8448C14.0607 13.8462 13.9028 13.7832 13.7849 13.6694L13.3431 13.2275C13.2292 13.1096 13.1662 12.9517 13.1676 12.7879C13.1691 12.624 13.2348 12.4672 13.3507 12.3514C13.4666 12.2355 13.6233 12.1698 13.7872 12.1683C13.9511 12.1669 14.1089 12.2299 14.2268 12.3438ZM6.27181 12.3438C6.38428 12.2317 6.5352 12.1666 6.69392 12.1617C6.85264 12.1569 7.00725 12.2126 7.12636 12.3177C7.24546 12.4227 7.32012 12.5691 7.33518 12.7272C7.35024 12.8852 7.30456 13.0431 7.20743 13.1688L7.15556 13.2275L6.71368 13.6694C6.60121 13.7815 6.45029 13.8465 6.29157 13.8514C6.13285 13.8562 5.97824 13.8005 5.85913 13.6955C5.74003 13.5904 5.66537 13.444 5.65031 13.286C5.63525 13.1279 5.68093 12.97 5.77806 12.8444L5.82993 12.7856L6.27181 12.3438ZM10.2493 5.5C11.2439 5.5 12.1977 5.89509 12.901 6.59835C13.6042 7.30161 13.9993 8.25544 13.9993 9.25C13.9993 10.2446 13.6042 11.1984 12.901 11.9017C12.1977 12.6049 11.2439 13 10.2493 13C9.25475 13 8.30092 12.6049 7.59766 11.9017C6.8944 11.1984 6.49931 10.2446 6.49931 9.25C6.49931 8.25544 6.8944 7.30161 7.59766 6.59835C8.30092 5.89509 9.25475 5.5 10.2493 5.5ZM5.24931 8.625C5.40861 8.62518 5.56183 8.68617 5.67766 8.79553C5.7935 8.90489 5.8632 9.05435 5.87254 9.21337C5.88188 9.3724 5.83014 9.52899 5.72789 9.65115C5.62565 9.7733 5.48062 9.85181 5.32243 9.87063L5.24931 9.875H4.62431C4.46501 9.87482 4.31179 9.81383 4.19595 9.70447C4.08012 9.59511 4.01041 9.44565 4.00108 9.28663C3.99174 9.1276 4.04348 8.97101 4.14572 8.84885C4.24797 8.7267 4.393 8.64819 4.55118 8.62937L4.62431 8.625H5.24931ZM15.8743 8.625C16.0401 8.625 16.199 8.69085 16.3162 8.80806C16.4335 8.92527 16.4993 9.08424 16.4993 9.25C16.4993 9.41576 16.4335 9.57473 16.3162 9.69194C16.199 9.80915 16.0401 9.875 15.8743 9.875H15.2493C15.0835 9.875 14.9246 9.80915 14.8074 9.69194C14.6902 9.57473 14.6243 9.41576 14.6243 9.25C14.6243 9.08424 14.6902 8.92527 14.8074 8.80806C14.9246 8.69085 15.0835 8.625 15.2493 8.625H15.8743ZM5.82993 4.83062C5.93755 4.72301 6.08074 4.65837 6.23263 4.64882C6.38452 4.63927 6.53468 4.68547 6.65493 4.77875L6.71368 4.83062L7.15556 5.2725C7.26765 5.38497 7.33273 5.5359 7.33758 5.69461C7.34242 5.85333 7.28667 6.00795 7.18165 6.12705C7.07663 6.24615 6.93021 6.32082 6.77214 6.33587C6.61406 6.35093 6.45618 6.30526 6.33056 6.20812L6.27181 6.15625L5.82993 5.71437C5.71276 5.59717 5.64694 5.43823 5.64694 5.2725C5.64694 5.10677 5.71276 4.94783 5.82993 4.83062ZM14.6687 4.83062C14.7859 4.94783 14.8517 5.10677 14.8517 5.2725C14.8517 5.43823 14.7859 5.59717 14.6687 5.71437L14.2268 6.15625C14.1692 6.21594 14.1002 6.26356 14.0239 6.29631C13.9477 6.32907 13.8657 6.34631 13.7827 6.34703C13.6997 6.34775 13.6174 6.33194 13.5406 6.30051C13.4638 6.26909 13.394 6.22268 13.3353 6.164C13.2766 6.10531 13.2302 6.03553 13.1988 5.95872C13.1674 5.88191 13.1516 5.79961 13.1523 5.71662C13.153 5.63364 13.1702 5.55162 13.203 5.47537C13.2357 5.39912 13.2834 5.33015 13.3431 5.2725L13.7849 4.83062C13.9021 4.71346 14.0611 4.64763 14.2268 4.64763C14.3925 4.64763 14.5515 4.71346 14.6687 4.83062ZM10.2493 3C10.4151 3 10.574 3.06585 10.6912 3.18306C10.8085 3.30027 10.8743 3.45924 10.8743 3.625V4.25C10.8743 4.41576 10.8085 4.57473 10.6912 4.69194C10.574 4.80915 10.4151 4.875 10.2493 4.875C10.0835 4.875 9.92458 4.80915 9.80737 4.69194C9.69016 4.57473 9.62431 4.41576 9.62431 4.25V3.625C9.62431 3.45924 9.69016 3.30027 9.80737 3.18306C9.92458 3.06585 10.0835 3 10.2493 3Z" fill="black"/>
</svg>
