<svg width="20" height="20" viewBox="0 0 20 20" fill="none" xmlns="http://www.w3.org/2000/svg">
<rect width="19.8615" height="19.0339" rx="8.27561" fill="#02A777"/>
<path d="M14.8962 11.586L13.5886 10.6094L14.2341 9.10329L12.579 8.91295L12.4135 7.28265L10.9073 7.92815L9.93079 6.62061L8.95427 7.92815L7.44811 7.28265L7.25777 8.93778L5.62747 9.10329L6.27297 10.6094L4.96542 11.586H3.3103V12.4135H16.5513V11.586H14.8962ZM6.62055 11.586C6.64996 10.7184 7.00737 9.89425 7.62066 9.27988C8.23395 8.66552 9.05746 8.30666 9.92499 8.27573C10.7936 8.3037 11.6192 8.66048 12.2348 9.27392C12.8503 9.88736 13.21 10.7117 13.241 11.5802L6.62055 11.586Z" fill="black"/>
</svg>
